<svg width="144" height="137" viewBox="0 0 144 137" fill="none" xmlns="http://www.w3.org/2000/svg">
<path fill-rule="evenodd" clip-rule="evenodd" d="M144 58C144 81.8002 126.204 102.252 100.747 111.192C95.3862 125.714 73.4517 136.588 47.2079 136.588C42.4445 136.588 37.8231 136.23 33.417 135.557C49.6305 132.914 62.4824 125.431 67.3148 115.879C29.734 113.935 0 88.7645 0 58C0 25.9675 32.2355 0 72 0C111.765 0 144 25.9675 144 58ZM86 45.5C86 51.148 82.5315 55.986 77.6084 58H77.6667L81 86H64L67.3333 58H67.3916C62.4685 55.986 59 51.148 59 45.5C59 38.0442 65.0442 32 72.5 32C79.9558 32 86 38.0442 86 45.5Z" fill="white"/>
</svg>
